<svg width="68" height="70" viewBox="0 0 68 70" fill="none" xmlns="http://www.w3.org/2000/svg">
<path fill-rule="evenodd" clip-rule="evenodd" d="M33.612 65.503C51.694 65.693 66.507 51.19 66.698 33.107C66.889 15.025 52.385 0.211999 34.303 0.0209995C16.221 -0.170001 1.408 14.334 1.217 32.416C1.026 50.499 15.53 65.312 33.612 65.503ZM33.679 59.194C48.145 59.347 59.995 47.744 60.148 33.278C60.301 18.812 48.698 6.96201 34.232 6.80901C19.766 6.65601 7.916 18.259 7.763 32.725C7.61 47.191 19.213 59.041 33.679 59.194Z" fill="#FFDDA1"/>
<g filter="url(#filter0_d)">
<path d="M33.649 61.9998C49.6645 62.1688 62.7848 49.3226 62.9538 33.3071C63.1228 17.2915 50.2766 4.17124 34.2611 4.00221C18.2455 3.83319 5.12525 16.6794 4.95622 32.695C4.7872 48.7106 17.6334 61.8308 33.649 61.9998Z" fill="#FFDDA1"/>
</g>
<path d="M20.013 38.827C22.964 38.858 24.673 37.31 24.696 35.096C24.72 32.846 23.001 32 20.433 31.397C18.476 30.926 17.562 30.556 17.572 29.548C17.581 28.684 18.435 27.937 19.677 27.951C20.901 27.963 22.138 28.499 23.208 29.446L24.449 27.803C23.218 26.728 21.75 26.046 19.788 26.026C17.178 25.998 15.325 27.563 15.302 29.722C15.278 32.044 17.052 32.801 19.602 33.422C21.577 33.911 22.455 34.262 22.444 35.288C22.435 36.17 21.635 36.918 20.105 36.902C18.485 36.884 17.178 36.223 16.055 35.185L14.742 36.773C16.096 38.065 17.889 38.804 20.013 38.827ZM32.228 29.235C30.842 29.22 29.72 29.839 28.97 30.893L28.986 29.417L26.79 29.394L26.659 41.795L28.855 41.818L28.903 37.246C29.63 38.316 30.739 38.958 32.125 38.972C34.591 38.999 36.412 37.002 36.443 34.14C36.473 31.296 34.694 29.261 32.228 29.235ZM31.551 37.094C30.003 37.078 28.937 35.807 28.955 34.061C28.973 32.315 30.066 31.084 31.614 31.101C33.18 31.117 34.283 32.371 34.265 34.117C34.246 35.863 33.117 37.111 31.551 37.094ZM39.608 28.125C40.292 28.132 40.857 27.544 40.864 26.878C40.871 26.212 40.319 25.63 39.635 25.623C38.933 25.616 38.369 26.186 38.362 26.852C38.355 27.518 38.906 28.117 39.608 28.125ZM38.379 38.822L40.575 38.846L40.673 29.54L38.478 29.517L38.379 38.822ZM48.178 29.403C46.954 29.39 45.868 29.973 45.283 30.831L45.296 29.589L43.1 29.566L43.002 38.871L45.198 38.894L45.26 33.009C45.415 32.02 46.377 31.256 47.529 31.269C48.681 31.281 49.481 32.189 49.468 33.449L49.41 38.939L51.534 38.961L51.596 33.04C51.618 30.934 50.212 29.425 48.178 29.403Z" fill="black" fill-opacity="0.87"/>
<defs>
<filter id="filter0_d" x="0.908177" y="3.69616" width="66.0937" height="66.0937" filterUnits="userSpaceOnUse" color-interpolation-filters="sRGB">
<feFlood flood-opacity="0" result="BackgroundImageFix"/>
<feColorMatrix in="SourceAlpha" type="matrix" values="0 0 0 0 0 0 0 0 0 0 0 0 0 0 0 0 0 0 127 0"/>
<feOffset dy="3.74199"/>
<feGaussianBlur stdDeviation="1.871"/>
<feColorMatrix type="matrix" values="0 0 0 0 0.35 0 0 0 0 0.223404 0 0 0 0 0 0 0 0 0.25 0"/>
<feBlend mode="normal" in2="BackgroundImageFix" result="effect1_dropShadow"/>
<feBlend mode="normal" in="SourceGraphic" in2="effect1_dropShadow" result="shape"/>
</filter>
</defs>
</svg>
